<svg width="128" height="128" viewBox="0 0 128 128" fill="none" xmlns="http://www.w3.org/2000/svg">
  <rect width="128" height="128" rx="24" fill="#1B365D"/>
  <path d="M64 32C46.327 32 32 46.327 32 64C32 81.673 46.327 96 64 96C81.673 96 96 81.673 96 64C96 46.327 81.673 32 64 32Z" fill="#34E8BB"/>
  <path d="M64 44C52.954 44 44 52.954 44 64C44 75.046 52.954 84 64 84C75.046 84 84 75.046 84 64C84 52.954 75.046 44 64 44ZM64 76C57.373 76 52 70.627 52 64C52 57.373 57.373 52 64 52C70.627 52 76 57.373 76 64C76 70.627 70.627 76 64 76Z" fill="#1B365D"/>
  <circle cx="64" cy="64" r="8" fill="#FFFFFF"/>
</svg>
