<svg viewBox="0 0 120 120" xmlns="http://www.w3.org/2000/svg">
  <defs>
    <!-- Gold gradient -->
    <linearGradient id="goldGrad" x1="0%" y1="0%" x2="100%" y2="100%">
      <stop offset="0%" style="stop-color:#FFD700;stop-opacity:1" />
      <stop offset="100%" style="stop-color:#B8860B;stop-opacity:1" />
    </linearGradient>
    
    <!-- Geometric pattern -->
    <pattern id="networkPattern" x="0" y="0" width="20" height="20" patternUnits="userSpaceOnUse">
      <circle cx="10" cy="10" r="1" fill="#1e293b" opacity="0.1"/>
      <line x1="0" y1="10" x2="20" y2="10" stroke="#1e293b" stroke-width="0.5" opacity="0.05"/>
      <line x1="10" y1="0" x2="10" y2="20" stroke="#1e293b" stroke-width="0.5" opacity="0.05"/>
    </pattern>
  </defs>
  
  <!-- Background circle with subtle pattern -->
  <circle cx="60" cy="60" r="55" fill="#0f172a" stroke="url(#goldGrad)" stroke-width="2"/>
  <circle cx="60" cy="60" r="53" fill="url(#networkPattern)" opacity="0.3"/>
  
  <!-- Letter L -->
  <g transform="translate(25, 30)">
    <path d="M 0 0 L 0 50 L 25 50 L 25 42 L 8 42 L 8 0 Z" fill="url(#goldGrad)"/>
  </g>
  
  <!-- Letter O with tech accent -->
  <g transform="translate(65, 30)">
    <path d="M 12.5 0 C 19.4 0 25 5.6 25 12.5 L 25 37.5 C 25 44.4 19.4 50 12.5 50 C 5.6 50 0 44.4 0 37.5 L 0 12.5 C 0 5.6 5.6 0 12.5 0 Z M 12.5 8 C 10 8 8 10 8 12.5 L 8 37.5 C 8 40 10 42 12.5 42 C 15 42 17 40 17 37.5 L 17 12.5 C 17 10 15 8 12.5 8 Z" fill="url(#goldGrad)"/>
    
    <!-- Tech accent - small connecting dots -->
    <circle cx="20" cy="15" r="1.5" fill="#FFD700" opacity="0.6"/>
    <circle cx="22" cy="25" r="1" fill="#FFD700" opacity="0.4"/>
    <circle cx="20" cy="35" r="1.5" fill="#FFD700" opacity="0.6"/>
    
    <!-- Connecting lines -->
    <line x1="17" y1="15" x2="20" y2="15" stroke="#FFD700" stroke-width="1" opacity="0.3"/>
    <line x1="17" y1="25" x2="22" y2="25" stroke="#FFD700" stroke-width="0.8" opacity="0.3"/>
    <line x1="17" y1="35" x2="20" y2="35" stroke="#FFD700" stroke-width="1" opacity="0.3"/>
  </g>
  
  <!-- Subtle corner accents -->
  <circle cx="15" cy="15" r="2" fill="none" stroke="url(#goldGrad)" stroke-width="1" opacity="0.3"/>
  <circle cx="105" cy="15" r="2" fill="none" stroke="url(#goldGrad)" stroke-width="1" opacity="0.3"/>
  <circle cx="15" cy="105" r="2" fill="none" stroke="url(#goldGrad)" stroke-width="1" opacity="0.3"/>
  <circle cx="105" cy="105" r="2" fill="none" stroke="url(#goldGrad)" stroke-width="1" opacity="0.3"/>
</svg>